<?xml version="1.0" encoding="utf-8"?>
<!-- Generator: Adobe Illustrator 23.0.3, SVG Export Plug-In . SVG Version: 6.00 Build 0)  -->
<svg version="1.1" id="Layer_1" xmlns="http://www.w3.org/2000/svg" xmlns:xlink="http://www.w3.org/1999/xlink" x="0px" y="0px"
	 viewBox="0 0 22 22" style="enable-background:new 0 0 22 22;" xml:space="preserve">
<style type="text/css">
	.st0{fill:#27A637;}
</style>
<path class="st0" d="M17.75,2.55c-0.53,0.49-1.05,1-1.58,1.54c-3,3.05-5.46,6.19-7.38,9.42l-0.53-1.19
	C7.19,9.95,6.22,8.76,5.35,8.76c-1.02,0-2.14,0.65-3.37,1.94c0.73,0.25,1.38,0.75,1.96,1.51c0.58,0.76,1.22,1.93,1.9,3.52l0.48,1.1
	c0.5,1.21,0.82,2.09,0.97,2.62c0.37-0.35,1.08-0.89,2.12-1.61l1.26-0.85c1.56-3.3,3.83-6.84,6.8-10.64
	c0.88-1.12,1.72-2.12,2.54-3.06C19.2,3.11,18.44,2.86,17.75,2.55z"/>
</svg>
