<?xml version="1.0" encoding="utf-8"?>
<!-- Generator: Adobe Illustrator 23.0.6, SVG Export Plug-In . SVG Version: 6.00 Build 0)  -->
<svg version="1.1" id="Layer_1" xmlns="http://www.w3.org/2000/svg" xmlns:xlink="http://www.w3.org/1999/xlink" x="0px" y="0px"
	 viewBox="0 0 22 22" style="enable-background:new 0 0 22 22;" xml:space="preserve">
<style type="text/css">
	.st0{fill:#145FCC;}
</style>
<path class="st0" d="M18.3,12.9l-2-1.1c0-0.3,0.1-0.6,0.1-0.9c0-0.3,0-0.5-0.1-0.8L18.3,9l-0.7-1.8l-2.1,0.6
	c-0.3-0.5-0.7-0.9-1.2-1.2l0.5-2.2l-1.8-0.7l-1.1,1.9c-0.3,0-0.6-0.1-0.9-0.1c-0.3,0-0.6,0-0.8,0.1L9,3.7L7.2,4.5l0.6,2.1
	C7.3,6.9,6.9,7.3,6.6,7.8L4.4,7.3L3.7,9.1l1.9,1.1c0,0.3-0.1,0.6-0.1,0.8c0,0.3,0,0.6,0.1,0.9L3.7,13l0.7,1.8l2.2-0.6
	c0.3,0.5,0.7,0.9,1.2,1.2l-0.5,2.2l1.8,0.7l1.1-2c0.3,0,0.6,0.1,0.8,0.1c0.3,0,0.6,0,0.8-0.1l1.2,1.9l1.8-0.7l-0.6-2.2
	c0.5-0.3,0.9-0.7,1.2-1.2l2.2,0.5L18.3,12.9z M11,14.2c-1.8,0-3.2-1.4-3.2-3.2c0-1.8,1.4-3.2,3.2-3.2s3.2,1.4,3.2,3.2
	C14.2,12.7,12.8,14.2,11,14.2z"/>
</svg>
