<svg width="210" height="45" viewBox="0 0 210 45" fill="none" xmlns="http://www.w3.org/2000/svg">
<g clip-path="url(#clip0)">
<path d="M179.8 0.799988L189 19.6H184.8L182.9 15.5H172.7L170.9 19.6H167.1L176.2 0.799988H179.8ZM181.3 12.1L177.8 4.49999L174.2 12.1H181.3Z" fill="#fff"/>
<path d="M72.1 19.6V3.99999H59.8V19.6H56.5V0.799988H75.4V19.6H72.1Z" fill="#fff"/>
<path d="M84.3 19.6C81.3 19.6 78.8 17.1 78.8 14.1V6.29999C78.8 3.29999 81.3 0.799988 84.3 0.799988H92.1C95.1 0.799988 97.6 3.29999 97.6 6.29999V14.1C97.6 17.1 95.1 19.6 92.1 19.6H84.3ZM84.3 3.99999C83 3.99999 82 5.09999 82 6.29999V14.1C82 15.3 83 16.4 84.3 16.4H92.1C93.3 16.4 94.4 15.4 94.4 14.1V6.29999C94.4 5.09999 93.4 3.99999 92.1 3.99999H84.3Z" fill="#fff"/>
<path d="M126.3 0.799988H123V19.6H126.3V0.799988Z" fill="#fff"/>
<path d="M130.3 19.6V0.799988H146.6V3.99999H133.6V19.6H130.3Z" fill="#fff"/>
<path d="M149.3 19.6V0.799988H162.6C165.6 0.799988 168 3.29999 168.1 6.29999V8.89999C168.1 11.9 165.6 14.4 162.6 14.4H152.5V19.6H149.3ZM162.6 11.2C163.8 11.2 164.9 10.2 164.9 8.89999V6.29999C164.9 5.09999 163.9 3.99999 162.6 3.99999H152.5V11.1H162.6V11.2Z" fill="#fff"/>
<path d="M197.9 20.4V17.8H194.6C191.6 17.8 189.1 15.3 189.1 12.3V8.1C189.1 5.1 191.6 2.6 194.6 2.6H197.9V0H201.2V2.6H204.5C207.5 2.6 210 5.1 210 8.1V12.3C210 15.3 207.5 17.8 204.5 17.8H201.2V20.4H197.9ZM204.5 14.5C205.7 14.5 206.8 13.5 206.8 12.2V8.1C206.8 6.9 205.8 5.8 204.5 5.8H201.2V14.5H204.5ZM194.6 5.9C193.4 5.9 192.3 6.9 192.3 8.2V12.4C192.3 13.6 193.3 14.7 194.6 14.7H197.9V5.9H194.6Z" fill="#fff"/>
<path d="M61.8 44.9C58.8 44.9 56.3 42.4 56.3 39.4V31.6C56.3 28.6 58.7 26.2 61.8 26.1H69.6C72.6 26.1 75 28.6 75.1 31.6V31.9H71.8V31.6C71.8 30.4 70.8 29.3 69.5 29.3H61.7C60.5 29.3 59.4 30.3 59.4 31.6V39.4C59.4 40.6 60.4 41.7 61.7 41.7H69.5C70.7 41.7 71.8 40.7 71.8 39.4V39H75.1V39.3C75.1 42.3 72.6 44.8 69.6 44.8H61.8V44.9Z" fill="#fff"/>
<path d="M79.4 44.9V26H98.3V29.3H82.7V33.8H95.7V37.1H82.7V41.6H98.3V44.9H79.4Z" fill="#fff"/>
<path d="M102.6 44.9V26H115.9C118.9 26 121.3 28.5 121.4 31.5V34.1C121.4 37.1 118.9 39.6 115.9 39.6H105.8V44.8H102.6V44.9ZM115.9 36.4C117.1 36.4 118.2 35.4 118.2 34.1V31.5C118.2 30.3 117.2 29.2 115.9 29.2H105.8V36.3H115.9V36.4Z" fill="#fff"/>
<path d="M125.7 44.9V26H139C142 26 144.5 28.5 144.5 31.5C144.5 33 144 34.3 142.9 35.4C144 36.5 144.5 37.8 144.5 39.3C144.5 42.3 142.1 44.7 139 44.8H125.7V44.9ZM139 41.6C140.2 41.6 141.3 40.6 141.3 39.3C141.3 38 140.3 37 139 37H129V41.5H139V41.6ZM139 33.8C140.2 33.8 141.3 32.8 141.3 31.5C141.3 30.2 140.3 29.2 139 29.2H129V33.7H139V33.8Z" fill="#fff"/>
<path d="M152.6 26H149.3V44.8H152.6V26Z" fill="#fff"/>
<path d="M162.5 44.9C159.5 44.9 157 42.4 157 39.4V31.6C157 28.6 159.4 26.2 162.5 26.1H170.3C173.3 26.1 175.7 28.6 175.8 31.6V31.9H172.5V31.6C172.5 30.4 171.5 29.3 170.2 29.3H162.4C161.2 29.3 160.1 30.3 160.1 31.6V39.4C160.1 40.6 161.1 41.7 162.4 41.7H170.2C171.4 41.7 172.5 40.7 172.5 39.4V39H175.8V39.3C175.8 42.3 173.3 44.8 170.3 44.8H162.5V44.9Z" fill="#fff"/>
<path d="M0 0.600006C0 0.600006 0 37.4 0 37.5C0.1 41.5 3.3 44.8 7.3 44.9V8.00001H24.5V32.6H32V0.600006H0Z" fill="#fff"/>
<path d="M36.9 25.7V37.5H19.7V12.9H12.3V44.9H44.3V25.7H36.9Z" fill="#fff"/>
<path d="M36.9 0.600006V19.3H44.3V8.10001C44.3 4.00001 41 0.700006 36.9 0.600006Z" fill="#fff"/>
<path d="M111.6 0.799988L120.7 19.6H116.4L109.5 4.79999L102.5 19.6H98.7L107.7 0.799988H111.6Z" fill="#fff"/>
</g>
<defs>
<clipPath id="clip0">
<rect width="210" height="44.9" fill="white"/>
</clipPath>
</defs>
</svg>
