<?xml version="1.0" encoding="utf-8"?>
<!-- Generator: Adobe Illustrator 23.0.3, SVG Export Plug-In . SVG Version: 6.00 Build 0)  -->
<svg version="1.1" id="Layer_1" xmlns="http://www.w3.org/2000/svg" xmlns:xlink="http://www.w3.org/1999/xlink" x="0px" y="0px"
	 viewBox="0 0 22 22" style="enable-background:new 0 0 22 22;" xml:space="preserve">
<style type="text/css">
	.st0{fill:#DF16A0;}
</style>
<path class="st0" d="M4.2,2.2v17.6h13.6V2.2H4.2z M16.3,17.6c0,0.4-0.4,0.8-0.8,0.8H6.4c-0.4,0-0.8-0.4-0.8-0.8V4.4
	C5.6,4,6,3.6,6.4,3.6h9.1c0.4,0,0.8,0.4,0.8,0.8L16.3,17.6L16.3,17.6z"/>
<g>
	<path class="st0" d="M14.4,6.5H7.6c-0.4,0-0.8-0.3-0.8-0.8S7.2,5,7.6,5h6.8c0.4,0,0.8,0.3,0.8,0.8S14.8,6.5,14.4,6.5z"/>
</g>
<g>
	<path class="st0" d="M14.4,9.3H7.6C7.2,9.3,6.8,9,6.8,8.5s0.3-0.8,0.8-0.8h6.8c0.4,0,0.8,0.3,0.8,0.8S14.8,9.3,14.4,9.3z"/>
</g>
<g>
	<path class="st0" d="M14.4,12H7.6c-0.4,0-0.8-0.3-0.8-0.8s0.3-0.8,0.8-0.8h6.8c0.4,0,0.8,0.3,0.8,0.8S14.8,12,14.4,12z"/>
</g>
</svg>
