<?xml version="1.0" encoding="utf-8"?>
<!-- Generator: Adobe Illustrator 23.0.6, SVG Export Plug-In . SVG Version: 6.00 Build 0)  -->
<svg version="1.1" id="Layer_1" xmlns="http://www.w3.org/2000/svg" xmlns:xlink="http://www.w3.org/1999/xlink" x="0px" y="0px"
	 viewBox="0 0 22 22" style="enable-background:new 0 0 22 22;" xml:space="preserve">
<style type="text/css">
	.st0{fill:#E51752;}
</style>
<g>
	<path class="st0" d="M2.5,8.4c0-1,0.4-1.9,1.1-2.6s1.6-1.1,2.6-1.1c1,0,1.9,0.4,2.6,1.1c0.7,0.7,1.1,1.6,1.1,2.6
		c0,1-0.4,1.9-1.1,2.6C8,11.6,7.1,12,6.1,12c-1,0-1.9-0.4-2.6-1.1C2.8,10.2,2.5,9.4,2.5,8.4z M4.4,8.3c0,0.5,0.2,0.9,0.5,1.2
		C5.2,9.8,5.6,10,6.1,10c0.5,0,0.8-0.2,1.2-0.5c0.3-0.3,0.5-0.7,0.5-1.2c0-0.5-0.2-0.8-0.5-1.2C7,6.9,6.6,6.7,6.1,6.7
		c-0.5,0-0.9,0.2-1.2,0.5C4.6,7.5,4.4,7.9,4.4,8.3z M5.8,17.3l8.2-12.6h2.1L7.9,17.3H5.8z M12.3,13.7c0-1,0.4-1.9,1.1-2.6
		c0.7-0.7,1.6-1.1,2.6-1.1c1,0,1.9,0.4,2.6,1.1c0.7,0.7,1.1,1.6,1.1,2.6c0,1-0.4,1.9-1.1,2.6c-0.7,0.7-1.6,1.1-2.6,1.1
		c-1,0-1.9-0.4-2.6-1.1C12.6,15.5,12.3,14.7,12.3,13.7z M14.2,13.7c0,0.5,0.2,0.9,0.5,1.2s0.7,0.5,1.2,0.5c0.5,0,0.8-0.2,1.2-0.5
		c0.3-0.3,0.5-0.7,0.5-1.2c0-0.5-0.2-0.9-0.5-1.2c-0.3-0.3-0.7-0.5-1.2-0.5c-0.5,0-0.9,0.2-1.2,0.5S14.2,13.2,14.2,13.7z"/>
</g>
</svg>
