<?xml version="1.0" encoding="utf-8"?>
<!-- Generator: Adobe Illustrator 23.0.6, SVG Export Plug-In . SVG Version: 6.00 Build 0)  -->
<svg version="1.1" id="Layer_1" xmlns="http://www.w3.org/2000/svg" xmlns:xlink="http://www.w3.org/1999/xlink" x="0px" y="0px"
	 viewBox="0 0 22 22" style="enable-background:new 0 0 22 22;" xml:space="preserve">
<style type="text/css">
	.st0{fill:#27A637;}
</style>
<path class="st0" d="M17.9,3.3c0.3,0.1,0.6,0.2,1,0.3c-0.7,0.8-1.3,1.5-1.9,2.3c-3,3.8-5.2,7.1-6.8,10.4c0,0-2.1,1.4-2.4,1.7
	c-0.2-0.5-1.9-4.8-3-6.2c-0.4-0.5-0.9-1.1-1.7-1.4c0.8-0.7,1.5-1.1,2.2-1.1c0.1,0,1,0.2,2.3,3.2l0.5,1.2l0.6,1.2
	c0,0,1.1-2.3,3.9-5.9S17.5,3.7,17.9,3.3 M17.8,2.5c-0.5,0.5-1,1-1.6,1.5c-3,3.1-5.5,6.2-7.4,9.4l-0.5-1.2c-1.1-2.4-2-3.6-2.9-3.6
	c-1,0-2.1,0.6-3.4,1.9c0.7,0.3,1.4,0.8,2,1.5s1.2,1.9,1.9,3.5l0.5,1.1c0.5,1.2,0.8,2.1,1,2.6c0.4-0.4,1.1-0.9,2.1-1.6l1.3-0.9
	c1.6-3.3,3.8-6.8,6.8-10.6C18.5,5,19.3,4,20.1,3C19.2,3.1,18.4,2.9,17.8,2.5L17.8,2.5z"/>
</svg>
